<svg width="235" height="235" viewBox="0 0 235 235" fill="none" xmlns="http://www.w3.org/2000/svg">
<path d="M75.2 14.1001C41.5127 14.1001 14.1 41.5128 14.1 75.2001V159.8C14.1 193.487 41.5127 220.9 75.2 220.9H159.8C193.487 220.9 220.9 193.487 220.9 159.8V75.2001C220.9 41.5128 193.487 14.1001 159.8 14.1001H75.2ZM75.2 23.5001H159.8C188.406 23.5001 211.5 46.5936 211.5 75.2001V159.8C211.5 188.407 188.406 211.5 159.8 211.5H75.2C46.5935 211.5 23.5 188.407 23.5 159.8V75.2001C23.5 46.5936 46.5935 23.5001 75.2 23.5001ZM173.9 51.7001C171.407 51.7001 169.016 52.6905 167.253 54.4533C165.49 56.2161 164.5 58.6071 164.5 61.1001C164.5 63.5931 165.49 65.9841 167.253 67.7469C169.016 69.5097 171.407 70.5001 173.9 70.5001C176.393 70.5001 178.784 69.5097 180.547 67.7469C182.31 65.9841 183.3 63.5931 183.3 61.1001C183.3 58.6071 182.31 56.2161 180.547 54.4533C178.784 52.6905 176.393 51.7001 173.9 51.7001ZM117.5 65.8001C89.0025 65.8001 65.8 89.0026 65.8 117.5C65.8 145.998 89.0025 169.2 117.5 169.2C145.997 169.2 169.2 145.998 169.2 117.5C169.2 89.0026 145.997 65.8001 117.5 65.8001ZM117.5 75.2001C140.917 75.2001 159.8 94.0828 159.8 117.5C159.8 140.917 140.917 159.8 117.5 159.8C94.0827 159.8 75.2 140.917 75.2 117.5C75.2 94.0828 94.0827 75.2001 117.5 75.2001Z" fill="white"/>
</svg>
